# xmcd CD database file
#
# Track frame offsets:
#	150
#	24247
#	50747
#	65190
#	99315
#	111225
#	130995
#	160955
#	188434
#	203975
#	227687
#	253255
#	275552
#	288483
#	298672
#	310738
#	322090
#	331159
#
# Disc length: 4544 seconds
#
# Revision: 0
# Processed by: cddbd v1.5.2PL0 Copyright (c) Steve Scherf et al.
# Submitted via: CDex 1.77
#
DISCID=1511be12
DTITLE=Junior Kimbrough - essential and first recordings
DYEAR=2000
DGENRE=Blues
TTITLE0=Junior Kimbrough - Release Me
TTITLE1=Junior Kimbrough - All Night Long
TTITLE2=Junior Kimbrough - Meet Me in the City
TTITLE3=Junior Kimbrough - You Better Run
TTITLE4=Junior Kimbrough - Done Got Old
TTITLE5=Junior Kimbrough - Sad Days Lonely Nights
TTITLE6=Junior Kimbrough - Old Black Mattie
TTITLE7=Junior Kimbrough - Most Things Haven't Worked Out
TTITLE8=Junior Kimbrough - I'm Leaving You Baby
TTITLE9=Junior Kimbrough - Keep on Braggin'
TTITLE10=Junior Kimbrough - Tramp
TTITLE11=Junior Kimbrough - Nobody But You
TTITLE12=Junior Kimbrough - Lonesome In My Home
TTITLE13=Junior Kimbrough - Feels So Good #1
TTITLE14=Junior Kimbrough - Done Got Old
TTITLE15=Junior Kimbrough - Meet In The City
TTITLE16=Junior Kimbrough - Feels So Good #2
TTITLE17=Junior Kimbrough - Feels So Bad
EXTD=YEAR: 2000
EXTT0=
EXTT1=
EXTT2=
EXTT3=
EXTT4=
EXTT5=
EXTT6=
EXTT7=
EXTT8=
EXTT9=
EXTT10=
EXTT11=
EXTT12=
EXTT13=
EXTT14=
EXTT15=
EXTT16=
EXTT17=
PLAYORDER=
